<mxfile host="app.diagrams.net" modified="2023-12-11T14:07:30.194Z" agent="Mozilla/5.0 (Windows NT 10.0; Win64; x64) AppleWebKit/537.36 (KHTML, like Gecko) Chrome/120.0.0.0 Safari/537.36 Edg/120.0.0.0" etag="c4eLrjxwluQ1Hk9Rn7-7" version="22.1.7" type="device">
  <diagram name="Stránka-1" id="uAH7YVlTnLCN9lUZIeYk">
    <mxGraphModel dx="929" dy="453" grid="1" gridSize="10" guides="1" tooltips="1" connect="1" arrows="1" fold="1" page="1" pageScale="1" pageWidth="827" pageHeight="1169" math="0" shadow="0">
      <root>
        <mxCell id="0" />
        <mxCell id="1" parent="0" />
        <mxCell id="a89kOT88D6QzlkVIG34C-3" value="" style="edgeStyle=orthogonalEdgeStyle;rounded=0;orthogonalLoop=1;jettySize=auto;html=1;" edge="1" parent="1" source="a89kOT88D6QzlkVIG34C-1" target="a89kOT88D6QzlkVIG34C-2">
          <mxGeometry relative="1" as="geometry" />
        </mxCell>
        <mxCell id="a89kOT88D6QzlkVIG34C-1" value="eratosthenovo sito" style="ellipse;whiteSpace=wrap;html=1;" vertex="1" parent="1">
          <mxGeometry x="347" y="270" width="120" height="80" as="geometry" />
        </mxCell>
        <mxCell id="a89kOT88D6QzlkVIG34C-11" value="" style="edgeStyle=orthogonalEdgeStyle;rounded=0;orthogonalLoop=1;jettySize=auto;html=1;" edge="1" parent="1" source="a89kOT88D6QzlkVIG34C-2" target="a89kOT88D6QzlkVIG34C-6">
          <mxGeometry relative="1" as="geometry" />
        </mxCell>
        <mxCell id="a89kOT88D6QzlkVIG34C-2" value="Čislo N" style="shape=parallelogram;perimeter=parallelogramPerimeter;whiteSpace=wrap;html=1;fixedSize=1;" vertex="1" parent="1">
          <mxGeometry x="347" y="370" width="120" height="60" as="geometry" />
        </mxCell>
        <mxCell id="a89kOT88D6QzlkVIG34C-12" value="" style="edgeStyle=orthogonalEdgeStyle;rounded=0;orthogonalLoop=1;jettySize=auto;html=1;" edge="1" parent="1" source="a89kOT88D6QzlkVIG34C-6" target="a89kOT88D6QzlkVIG34C-8">
          <mxGeometry relative="1" as="geometry" />
        </mxCell>
        <mxCell id="a89kOT88D6QzlkVIG34C-6" value="Řada čisel C od 1 do N" style="whiteSpace=wrap;html=1;" vertex="1" parent="1">
          <mxGeometry x="347" y="450" width="120" height="60" as="geometry" />
        </mxCell>
        <mxCell id="a89kOT88D6QzlkVIG34C-14" value="" style="edgeStyle=orthogonalEdgeStyle;rounded=0;orthogonalLoop=1;jettySize=auto;html=1;" edge="1" parent="1" source="a89kOT88D6QzlkVIG34C-8" target="a89kOT88D6QzlkVIG34C-13">
          <mxGeometry relative="1" as="geometry" />
        </mxCell>
        <mxCell id="a89kOT88D6QzlkVIG34C-17" value="" style="edgeStyle=orthogonalEdgeStyle;rounded=0;orthogonalLoop=1;jettySize=auto;html=1;" edge="1" parent="1" source="a89kOT88D6QzlkVIG34C-8" target="a89kOT88D6QzlkVIG34C-16">
          <mxGeometry relative="1" as="geometry" />
        </mxCell>
        <mxCell id="a89kOT88D6QzlkVIG34C-8" value="pro čísla od 2 do odmocniny z N, která už nejsou v C" style="strokeWidth=2;html=1;shape=mxgraph.flowchart.loop_limit;whiteSpace=wrap;" vertex="1" parent="1">
          <mxGeometry x="350" y="530" width="114" height="70" as="geometry" />
        </mxCell>
        <mxCell id="a89kOT88D6QzlkVIG34C-15" style="edgeStyle=orthogonalEdgeStyle;rounded=0;orthogonalLoop=1;jettySize=auto;html=1;" edge="1" parent="1" source="a89kOT88D6QzlkVIG34C-13" target="a89kOT88D6QzlkVIG34C-8">
          <mxGeometry relative="1" as="geometry">
            <Array as="points">
              <mxPoint x="500" y="650" />
              <mxPoint x="500" y="560" />
            </Array>
          </mxGeometry>
        </mxCell>
        <mxCell id="a89kOT88D6QzlkVIG34C-13" value="z C odstranit všechny násobky vybraného čísla" style="whiteSpace=wrap;html=1;strokeWidth=2;" vertex="1" parent="1">
          <mxGeometry x="347" y="620" width="120" height="60" as="geometry" />
        </mxCell>
        <mxCell id="a89kOT88D6QzlkVIG34C-16" value="všechna čísla v C jsou prvočísla" style="ellipse;whiteSpace=wrap;html=1;strokeWidth=2;" vertex="1" parent="1">
          <mxGeometry x="250" y="525" width="80" height="80" as="geometry" />
        </mxCell>
      </root>
    </mxGraphModel>
  </diagram>
</mxfile>
